# xmcd
#
# Track frame offsets: 
#        150
#        22034
#        41668
#        65415
#        87645
#        106630
#        127829
#        156299
#        182639
#        210116
#        227486
#        251294
#
# Disc length: 3573 seconds
#
# Revision: 0
# Processed by: cddbd v1.5.2PL0 Copyright (c) Steve Scherf et al.
# Submitted via: ExactAudioCopyFreeDBPlugin 1.0
#
DISCID=8e0df30c
DTITLE=The Builders and The Butchers - Western Medicine
DYEAR=2013
DGENRE=Folk/Rock
TTITLE0=Blood Runs Cold
TTITLE1=Dirt in the Ground
TTITLE2=No Roses
TTITLE3=Desert on Fire
TTITLE4=Penies in the Well
TTITLE5=Watching the World
TTITLE6=Hellfire Mountain
TTITLE7=The Snow
TTITLE8=Poison Water
TTITLE9=Redemtion Sound
TTITLE10=Ceceil
TTITLE11=Take Me Home
EXTD=
EXTT0=
EXTT1=
EXTT2=
EXTT3=
EXTT4=
EXTT5=
EXTT6=
EXTT7=
EXTT8=
EXTT9=
EXTT10=
EXTT11=
PLAYORDER=
